PathFileType	4	(X/Y/Z)	D:\TRACE\v60_Jaco2_6-2-23\JustArmDRS_Motion2_3-platform.trc
DataRate	CameraRate	NumFrames	NumMarkers	Units	OrigDataRate	OrigDataStartFrame	OrigNumFrames
100.00	100.00	      54	5	mm	100.00	872	      6969
Frame#	Time	Left_Front			Right_Front			Left_Aft			Right_Aft			Post			
		X1	Y1	Z1	X2	Y2	Z2	X3	Y3	Z3	X4	Y4	Z4	X5	Y5	Z5	

872	8.710	-749.85651	56.10839	-626.27271	819.80005	57.12414	-631.55176	-658.19751	-25.69585	505.95602	784.15063	-27.62461	515.72064	37.26661	1375.93469	-868.27960	
873	8.720	-749.84937	57.24895	-625.95825	820.16833	58.56168	-631.03723	-658.15399	-26.18859	506.22281	783.81805	-28.44787	515.97400	37.35239	1377.13318	-863.56824	
874	8.730	-749.87164	58.32710	-625.66260	819.99567	59.28703	-631.01160	-658.10736	-27.15230	506.50177	784.09528	-28.79984	516.43134	37.45076	1378.03430	-858.94110	
875	8.740	-749.90021	59.03568	-625.28705	819.90991	59.96245	-630.73743	-658.05029	-27.82118	506.57825	784.16028	-29.82902	516.23865	37.40507	1379.01904	-853.85010	
876	8.750	-749.98871	59.85723	-624.74359	820.03729	61.01430	-630.25031	-658.22717	-28.40451	506.57489	784.23102	-29.99552	515.79187	37.46444	1379.73914	-848.23730	
877	8.760	-749.89679	60.96886	-624.73975	820.01331	62.06960	-630.05170	-658.12946	-29.00757	506.82907	784.32104	-30.45123	516.12543	36.96551	1381.13330	-842.99188	
878	8.770	-750.10944	61.98431	-624.41846	819.90820	63.00705	-629.75446	-658.12561	-29.86366	507.10709	784.48529	-31.11157	516.48669	36.41004	1382.10693	-837.44360	
879	8.780	-750.21332	62.79357	-623.92810	819.70654	63.85509	-629.41803	-658.23303	-30.34463	507.20676	783.67303	-31.52619	516.65454	36.06718	1383.38501	-833.62262	
880	8.790	-750.49725	63.62363	-623.85059	819.33575	64.81182	-629.15784	-658.54517	-30.99702	507.26285	783.47424	-32.39029	516.79388	35.95288	1384.65039	-830.94653	
881	8.800	-750.76947	64.35583	-623.49640	819.26385	65.71440	-628.71777	-658.71759	-31.42367	507.43536	783.57263	-33.10698	516.82532	35.37151	1385.50537	-829.93665	
882	8.810	-751.04303	65.28346	-623.39789	818.78412	66.29896	-628.58026	-658.99542	-32.21725	507.75937	783.27252	-33.84034	517.04828	35.49205	1386.52344	-830.03192	
883	8.820	-751.39514	65.96594	-623.24670	818.50208	66.75676	-628.39874	-659.44427	-32.88714	507.91055	782.93298	-34.34278	517.07281	35.54557	1387.63135	-831.23755	
884	8.830	-751.72198	66.48436	-623.19116	818.16028	67.22211	-628.30621	-659.67737	-33.10170	508.04129	782.54120	-34.76377	516.96533	35.19217	1388.46509	-832.57709	
885	8.840	-752.16681	67.00793	-622.63141	817.87134	67.73027	-628.10242	-659.94171	-33.40877	508.04184	781.42334	-34.97783	517.32629	35.39557	1389.16431	-833.41638	
886	8.850	-752.36353	67.43870	-622.14752	817.71448	68.30521	-627.87476	-660.29877	-33.95905	508.10678	780.99664	-35.29742	517.67395	34.88745	1390.32971	-833.69781	
887	8.860	-752.78748	67.90186	-622.17889	817.30249	68.98811	-627.63660	-660.68481	-34.38480	508.18832	780.86218	-35.66385	517.91339	34.64239	1391.00354	-834.02863	
888	8.870	-753.16187	68.35271	-622.03760	816.78705	69.47961	-627.58276	-660.64935	-34.86950	508.33435	781.13251	-36.55648	517.85815	34.05449	1391.70557	-834.10205	
889	8.880	-753.45636	68.87582	-621.98309	816.29883	69.98644	-627.37012	-661.83728	-34.66999	508.18924	780.74994	-36.98734	517.89752	33.47762	1392.39282	-833.80725	
890	8.890	-753.99744	69.59500	-621.97089	815.79230	70.33073	-627.18243	-662.25537	-35.15686	508.36050	779.91718	-37.50808	517.97253	33.46873	1393.25366	-832.81519	
891	8.900	-754.50421	70.04717	-621.76196	815.33008	70.66373	-627.02521	-662.70557	-35.55478	508.50858	779.04535	-37.45781	518.27118	33.00686	1393.68835	-831.32178	
892	8.910	-755.12891	70.70370	-621.65405	814.88159	71.06305	-626.97974	-663.65479	-35.29921	508.89459	778.75970	-37.83879	518.49500	32.21807	1394.25208	-830.16718	
893	8.920	-755.64569	71.00234	-621.57605	814.41107	71.51053	-626.74176	-664.15106	-35.70101	508.82489	778.85449	-38.33205	518.68518	31.96958	1394.67944	-828.25647	
894	8.930	-756.00134	71.14887	-621.30847	813.98077	71.74596	-626.61926	-664.49347	-35.93143	508.91727	778.58502	-38.54866	518.75513	31.70342	1395.04163	-826.17303	
895	8.940	-756.51172	71.43514	-621.10730	813.44080	72.01493	-626.49396	-664.84229	-36.32623	508.96857	777.70319	-38.99348	518.59497	30.71750	1395.42419	-823.70142	
896	8.950	-756.93060	71.70816	-621.02332	812.72980	72.36096	-626.40387	-665.22650	-36.79704	508.78864	777.05859	-39.24475	518.61932	30.11071	1395.50354	-821.28052	
897	8.960	-757.57739	71.80108	-620.93414	812.26410	72.55125	-626.33490	-665.71631	-36.87622	508.87073	776.11914	-39.04222	518.87488	29.61551	1395.30615	-818.32190	
898	8.970	-758.42065	71.95624	-620.95197	811.82062	72.64144	-626.29529	-666.26959	-37.03021	508.91943	776.14856	-39.36006	518.82080	28.87148	1395.25781	-815.21515	
899	8.980	-758.95123	71.99474	-621.08850	811.03094	72.81551	-626.27515	-667.09009	-36.98068	508.99304	775.44867	-39.46528	518.82666	27.81002	1395.39063	-813.59778	
900	8.990	-759.55200	72.12909	-621.05121	810.46906	73.11662	-626.19739	-667.57892	-36.93279	509.00262	774.76184	-39.65656	518.85913	27.40875	1395.50171	-812.99170	
901	9.000	-760.10431	72.09088	-620.83801	809.83313	73.20039	-626.23370	-668.30536	-36.93535	509.07715	774.27386	-39.57061	518.87305	26.62004	1395.63062	-813.49487	
902	9.010	-760.56787	72.07961	-620.73383	809.23309	73.20113	-626.23840	-669.07794	-37.03479	509.05518	773.30640	-39.57034	519.09937	26.26236	1395.71289	-814.39252	
903	9.020	-761.48737	72.20351	-620.60834	808.60229	72.93690	-626.24298	-669.69458	-37.13508	509.07104	772.90265	-39.72048	518.98706	25.90205	1395.88403	-816.39978	
904	9.030	-762.18744	72.30066	-620.78101	807.71204	72.83527	-626.26105	-670.35913	-36.98537	509.01993	772.16821	-39.66813	519.10236	25.63441	1395.96326	-818.89264	
905	9.040	-762.96155	72.19056	-620.91779	806.95813	72.83308	-626.22327	-671.28247	-36.83022	508.97382	771.45551	-39.52109	519.11426	24.36004	1396.06799	-820.57446	
906	9.050	-763.73944	72.05886	-620.80994	806.18005	72.66875	-626.24109	-671.79810	-36.74765	509.00037	770.66534	-39.44389	519.54291	23.55904	1396.07275	-822.10004	
907	9.060	-764.03345	71.92075	-620.86902	805.86017	72.62591	-626.21155	-672.39795	-36.67062	509.10251	769.70752	-39.32212	519.47485	23.18305	1395.81018	-823.05884	
908	9.070	-765.05841	71.86870	-620.80347	805.14362	72.54311	-626.23175	-673.27673	-36.65812	509.00491	768.65576	-39.14544	519.18549	22.38304	1395.68091	-824.34875	
909	9.080	-765.91974	71.60133	-621.15601	804.21167	72.23441	-626.32312	-674.07660	-36.52380	508.84067	768.43286	-39.23552	518.84338	21.59859	1395.40613	-824.78058	
910	9.090	-766.74341	71.23979	-621.17987	803.25659	71.82204	-626.52325	-674.62677	-36.33866	508.72876	767.70551	-39.08486	518.73657	20.78313	1395.15210	-824.75226	
911	9.100	-767.35107	71.21339	-621.31555	802.58093	71.68687	-626.61035	-675.76068	-36.06351	508.64423	766.06897	-38.47771	519.02484	19.99656	1394.61914	-824.59833	
912	9.110	-767.98883	70.94796	-621.47046	801.84424	71.38200	-626.60242	-676.60052	-35.69584	508.74048	765.84778	-38.55344	518.98175	19.22544	1393.98962	-824.18140	
913	9.120	-769.20044	70.34690	-621.22449	801.08453	71.10594	-626.53510	-677.23175	-35.60782	508.76706	765.09534	-38.18968	518.82178	18.06966	1393.41382	-823.23621	
914	9.130	-770.03693	70.05486	-621.53192	799.91211	70.51632	-626.88525	-678.14081	-35.43707	508.73035	764.41772	-37.90216	518.71222	17.25023	1392.83923	-822.29718	
915	9.140	-770.73834	69.30931	-621.76776	799.27277	70.33562	-627.03845	-678.95056	-35.03017	508.69394	763.59747	-37.50782	518.77673	16.58223	1392.09265	-821.31268	
916	9.150	-771.44867	68.88438	-621.83679	798.42371	69.98180	-627.12054	-679.83160	-34.63462	508.49658	762.45691	-37.08361	519.14850	15.13497	1391.43896	-821.45135	
917	9.160	-772.47766	68.42587	-621.83319	797.43506	69.26321	-627.33380	-680.75092	-34.22802	508.50995	761.29266	-36.72163	519.07336	14.34615	1390.80078	-822.17584	
918	9.170	-773.55188	67.87674	-622.12683	796.42126	68.76443	-627.57458	-681.55573	-33.91958	508.50391	760.78766	-36.48635	518.15125	13.69696	1390.22180	-824.32233	
919	9.180	-774.42175	67.62267	-622.58820	795.76050	68.37530	-627.62219	-682.56622	-33.58599	508.22897	759.71881	-36.01446	517.95905	12.72930	1389.51343	-826.69086	
920	9.190	-775.07532	67.08637	-622.57111	794.62317	67.45997	-627.88977	-683.48657	-32.96428	508.06992	758.91406	-35.66117	517.74847	12.13814	1388.80469	-829.68164	
921	9.200	-776.12384	66.32729	-622.64380	793.61688	66.87955	-628.14722	-684.51038	-32.56713	508.02887	757.70605	-35.08152	517.79095	11.13289	1387.98254	-832.63043	
922	9.210	-777.37897	65.57536	-622.78705	792.85632	66.35870	-628.23492	-685.22565	-32.31899	507.90308	756.51434	-34.64654	517.61627	9.90254	1387.43591	-835.63611	
923	9.220	-778.35809	64.92271	-623.31030	791.59637	65.54491	-628.63416	-686.17004	-31.51605	507.71188	755.94678	-34.16916	517.44281	9.25568	1386.44421	-837.89398	
924	9.230	-779.08289	64.14687	-623.38623	790.80292	65.14836	-628.71802	-687.31647	-31.10951	507.74759	755.18604	-33.56153	517.34369	8.30557	1385.76111	-840.20978	
925	9.240	-779.99017	63.49109	-623.51764	789.83002	64.05219	-629.11707	-688.30731	-30.68511	507.76123	754.02246	-33.05510	517.30328	7.70842	1384.62244	-842.19092	
